<svg preserveAspectRatio="none" overflow="visible" style="display: block;" width="28.8942" height="23.2087" viewBox="0 0 28.8942 23.2087" fill="none" xmlns="http://www.w3.org/2000/svg">
<path id="Icon" d="M3.16956 9.65218C3.43285 8.8203 3.46425 8.08394 3.26377 7.44312C3.06328 6.8023 2.69154 6.12561 2.14855 5.41305C1.4471 4.50821 0.985022 3.65471 0.762317 2.85254C0.539612 2.05036 0.506037 1.09952 0.661593 0H3.5645C3.39735 0.871015 3.38286 1.59577 3.52102 2.17428C3.65919 2.75278 3.99711 3.39831 4.53479 4.11088C5.32078 5.11716 5.82513 6.01873 6.04783 6.81559C6.27054 7.61245 6.27875 8.55798 6.07247 9.65218H3.16956V9.65218M8.66232 9.65218C8.92561 8.8203 8.96123 8.08394 8.7692 7.44312C8.57718 6.8023 8.20966 6.12561 7.66667 5.41305C6.96522 4.50821 6.49891 3.65471 6.26776 2.85254C6.0366 2.05036 5.99879 1.09952 6.15435 0H9.05725C8.89011 0.871015 8.87561 1.59577 9.01378 2.17428C9.15194 2.75278 9.48987 3.39831 10.0275 4.11088C10.8135 5.11716 11.3179 6.01873 11.5406 6.81559C11.7633 7.61245 11.7715 8.55798 11.5652 9.65218H8.66232V9.65218M14.2348 9.65218C14.4981 8.8203 14.5337 8.08394 14.3417 7.44312C14.1496 6.8023 13.7821 6.12561 13.2391 5.41305C12.5377 4.50821 12.0714 3.65471 11.8402 2.85254C11.6091 2.05036 11.5713 1.09952 11.7268 0H14.6297C14.4626 0.871015 14.4481 1.59577 14.5862 2.17428C14.7244 2.75278 15.0623 3.39831 15.6 4.11088C16.386 5.11716 16.8904 6.01873 17.1131 6.81559C17.3358 7.61245 17.344 8.55798 17.1377 9.65218H14.2348V9.65218M4.27102 23.2087C3.08551 23.2087 2.0773 22.7932 1.24638 21.9623C0.41546 21.1314 0 20.1232 0 18.9377V12.3188H18.9232C19.0715 11.4942 19.4153 10.772 19.9547 10.1522C20.4941 9.53237 21.1565 9.08696 21.942 8.81594L27.9493 6.7971L28.8942 9.68117L22.9587 11.6761C22.6336 11.7862 22.3718 11.9819 22.1732 12.2631C21.9746 12.5442 21.8754 12.8611 21.8754 13.2138V18.9377C21.8754 20.1232 21.4599 21.1314 20.629 21.9623C19.7981 22.7932 18.7899 23.2087 17.6044 23.2087H4.27102V23.2087M4.27102 20.1754H17.6044C17.9502 20.1754 18.243 20.0556 18.4826 19.8159C18.7222 19.5763 18.842 19.2836 18.842 18.9377V15.3522H3.03334V18.9377C3.03334 19.2836 3.15315 19.5763 3.39276 19.8159C3.63237 20.0556 3.92513 20.1754 4.27102 20.1754V20.1754M10.9377 17.7638V17.7638V17.7638V17.7638V17.7638V17.7638V17.7638V17.7638V17.7638V17.7638" fill="#924C00"/>
</svg>
